<mxfile host="65bd71144e">
    <diagram id="NKjoIxnSjT0sX4V8ozzF" name="Página-1">
        <mxGraphModel dx="799" dy="497" grid="1" gridSize="10" guides="1" tooltips="1" connect="1" arrows="1" fold="1" page="1" pageScale="1" pageWidth="827" pageHeight="1169" math="0" shadow="0">
            <root>
                <mxCell id="0"/>
                <mxCell id="1" parent="0"/>
                <mxCell id="2" value="" style="strokeWidth=1;shadow=0;dashed=0;align=center;html=1;shape=mxgraph.mockup.containers.browserWindow;rSize=0;strokeColor=#666666;strokeColor2=#008cff;strokeColor3=#c4c4c4;mainText=,;recursiveResize=0;" vertex="1" parent="1">
                    <mxGeometry x="139" y="160" width="550" height="470" as="geometry"/>
                </mxCell>
                <mxCell id="6" value="" style="shape=image;imageAspect=0;aspect=fixed;verticalLabelPosition=bottom;verticalAlign=top;image=https://blogger.googleusercontent.com/img/b/R29vZ2xl/AVvXsEjcS-VW-REuXEG7oRRF0jiZBc1sLNXWTeJl6aNmXn5_OAln0H_ndn6MFPNMvYtBDzalDFH_xEcpwSQA_T16PRKS8bjDgkPIZuxkM68q5BU55N2z1TOY1SS6EYOy1IiNZfETcnLUXYXb0Vqn/w320-h240/1301367229_104690235_1-PROFESORES-PARTICULARES-CLASES-DE-MATEMaTICA-QUiMICA-FiSICA-BACHILLERATO-Zona-Sureste-y-El-Paraiso.jpg;" vertex="1" parent="2">
                    <mxGeometry x="115" y="130" width="320" height="240" as="geometry"/>
                </mxCell>
                <mxCell id="3" value="Page 1" style="strokeWidth=1;shadow=0;dashed=0;align=center;html=1;shape=mxgraph.mockup.containers.anchor;fontSize=17;fontColor=#666666;align=left;whiteSpace=wrap;" vertex="1" parent="2">
                    <mxGeometry x="60" y="12" width="110" height="26" as="geometry"/>
                </mxCell>
                <mxCell id="4" value="https://www.draw.io" style="strokeWidth=1;shadow=0;dashed=0;align=center;html=1;shape=mxgraph.mockup.containers.anchor;rSize=0;fontSize=17;fontColor=#666666;align=left;" vertex="1" parent="2">
                    <mxGeometry x="130" y="60" width="250" height="26" as="geometry"/>
                </mxCell>
                <mxCell id="5" value="&lt;b&gt;WillEdTech&lt;/b&gt;" style="text;html=1;align=center;verticalAlign=middle;whiteSpace=wrap;rounded=0;fontSize=20;" vertex="1" parent="2">
                    <mxGeometry x="222.5" y="130" width="105" height="30" as="geometry"/>
                </mxCell>
                <mxCell id="7" value="Suscríbete" style="html=1;shadow=0;dashed=0;shape=mxgraph.bootstrap.rrect;rSize=5;strokeColor=none;strokeWidth=1;fillColor=#1CA5B8;fontColor=#FFFFFF;whiteSpace=wrap;align=left;verticalAlign=middle;spacingLeft=0;fontStyle=1;fontSize=14;spacing=5;" vertex="1" parent="2">
                    <mxGeometry x="421" y="410" width="89" height="35" as="geometry"/>
                </mxCell>
            </root>
        </mxGraphModel>
    </diagram>
</mxfile>